<?xml version="1.0" encoding="utf-8"?>
<!-- Generator: Adobe Illustrator 24.0.2, SVG Export Plug-In . SVG Version: 6.00 Build 0)  -->
<svg version="1.1" id="Layer_1" xmlns="http://www.w3.org/2000/svg" xmlns:xlink="http://www.w3.org/1999/xlink" x="0px" y="0px"
	 viewBox="0 0 566.93 340.16" style="enable-background:new 0 0 566.93 340.16;" xml:space="preserve">
<style type="text/css">
	.st0{fill:#FFFFFF;}
	.st1{fill:#3E5F8A;}
	.st2{font-family:'Ibrand-Regular';}
	.st3{font-size:75.7652px;}
</style>
<g>
	<rect class="st0" width="566.93" height="340.16"/>
	<g>
		<g>
			<g>
				<path class="st1" d="M59.95,171.11c-1.49-1.49-0.87-4.12,1.17-4.99l27.78-11.79c1.55-0.66,2.78-1.89,3.43-3.44l11.61-27.57
					c0.87-2.05,3.5-2.68,5-1.18l42.04,42.04c4.3,4.3,11.64,1.25,11.64-4.82v-33.93c0-7.98-6.47-14.46-14.46-14.46H63.25
					c-7.98,0-14.46,6.47-14.46,14.46v84.92c0,7.98,6.47,14.46,14.46,14.46h34.22c5.97,0,8.96-7.22,4.74-11.44L59.95,171.11z"/>
				<path class="st1" d="M103.08,168.44l14.99,50.4c0.78,2.62,4.3,3.14,5.5,0.81l9.47-18.39c1.58-3.08,4.09-5.58,7.17-7.17
					l18.39-9.47c2.32-1.2,1.8-4.72-0.81-5.5l-50.4-14.99C104.75,163.35,102.29,165.81,103.08,168.44z"/>
				<path class="st1" d="M95.98,150.97l10.13-25.4c0.27-0.68,1.16-0.86,1.67-0.33l41.22,41.9l-41.22-38.86
					c-0.21-0.19-0.55-0.13-0.68,0.13L95.98,150.97z"/>
			</g>
			<text transform="matrix(1 0 0 1 184.9376 190.6183)" class="st1 st2 st3">Elm Origin</text>
		</g>
	</g>
</g>
</svg>
